<svg width="38" height="33" viewBox="0 0 38 33" fill="none" xmlns="http://www.w3.org/2000/svg">
<path fill-rule="evenodd" clip-rule="evenodd" d="M37.4686 12.9603C37.4686 12.8557 37.4588 12.7549 37.4509 12.6522C37.449 12.5863 37.4451 12.5224 37.4431 12.4604C37.4431 12.4119 37.4431 12.3615 37.4451 12.3092C37.4372 12.2918 37.4333 12.2704 37.4333 12.2491C37.4333 12.2259 37.4314 12.2007 37.4294 12.1774C37.4294 12.1212 37.4294 12.067 37.4196 12.0204C37.4196 12.0011 37.4157 11.9797 37.4138 11.9604C37.4098 11.6329 37.355 11.3344 37.3081 11.0457C37.2337 10.5709 37.1613 10.3403 37.1613 10.3403V10.3441C36.9969 9.70267 36.768 9.11547 36.5116 8.54378C35.2945 6.26864 33.2339 4.5962 30.731 3.23965C28.9131 2.35207 27.0463 1.55946 25.0111 1.16993L23.2578 0.848233C21.4144 0.507156 19.4027 0.44708 17.4419 0.538163C15.6827 0.697074 13.943 0.910247 12.2797 1.3114C9.99799 1.80364 7.83173 2.74741 5.93552 3.93343C3.97865 5.26479 2.25074 6.757 1.35058 8.84416C1.22534 9.12516 1.11575 9.42167 1.01987 9.72399H1.01595C1.01595 9.72399 0.798737 10.253 0.669584 11.2278C0.655886 11.315 0.644148 11.4003 0.63045 11.4856C0.620666 11.5689 0.614796 11.66 0.612839 11.753C0.597184 11.939 0.585438 12.1387 0.577611 12.3499C0.577611 12.3576 0.577615 12.3673 0.575658 12.3751L0.57174 12.7259L0.558047 14.5146V17.4157L0.542388 19.8536C0.536518 19.966 0.524777 20.2431 0.536518 20.6016V20.6055C0.550216 20.997 0.595225 21.4834 0.708724 21.9679C0.745904 22.1888 0.788954 22.4097 0.841789 22.619C0.963115 23.0996 1.11771 23.5492 1.29774 23.9891C1.60889 24.6635 1.95134 25.2973 2.40142 25.8689C4.36416 28.3456 7.56951 30.2312 11.043 31.2874L13.1446 31.8165C13.8824 31.9638 14.6221 32.1091 15.3774 32.2196C18.1033 32.6692 21.1698 32.5471 23.8389 32.0742C26.7077 31.5975 29.4806 30.7119 31.8758 29.2448C33.8542 27.9735 35.541 26.5007 36.5156 24.5066C36.7856 23.9446 36.995 23.3419 37.1398 22.6888V22.6927C37.5429 21.0881 37.4235 18.7412 37.4235 18.7412L37.449 14.0107C37.4549 13.6619 37.4607 13.313 37.4627 12.9623L37.4686 12.9603Z" fill="white"/>
<path d="M26.0776 11.2511L24.6432 12.7627L24.4631 12.9681C25.3437 13.0146 26.4004 13.0398 26.964 12.4041C27.148 12.1987 27.3397 11.9565 27.283 11.598C27.144 11.1639 26.5178 11.2685 26.0756 11.253L26.0776 11.2511Z" fill="#0B1D46"/>
<path d="M16.5574 12.5205C16.7707 12.1019 17.0329 11.7085 17.2305 11.2976L15.2795 13.0108L14.1348 14.0359H15.7022C15.9703 13.5185 16.2932 13.0476 16.5554 12.5224L16.5574 12.5205Z" fill="#0B1D46"/>
<path d="M33.8698 14.9874V12.7627C33.7974 11.7608 33.5802 10.8693 33.1751 10.0961C32.2515 8.57092 30.8112 7.41979 29.0872 6.47795C28.2654 6.05548 27.4122 5.63689 26.5179 5.3772C26.4357 5.6427 26.3261 5.883 26.1402 6.08455C25.6236 6.07292 25.0952 6.08455 24.5864 6.04967C24.7958 5.77835 25.0561 5.51479 25.1539 5.15434C25.1539 5.03612 25.1598 4.9121 25.0854 4.85396C24.6843 4.62528 24.2733 4.89465 23.9348 5.06519C23.0014 5.63689 22.2343 6.32291 21.6139 7.11359C21.5102 7.30739 21.3361 7.4663 21.3576 7.7473C21.3576 7.8597 21.4496 7.90621 21.5513 7.95272C22.4906 8.08838 23.1051 7.37715 23.6804 6.9353L25.4005 6.94112C25.3359 7.07677 25.2263 7.1601 25.1344 7.25894C24.0835 8.3655 22.2421 9.20075 20.4379 8.72402C19.9897 8.56898 19.6492 8.29961 19.5847 7.85776C19.5494 7.82869 19.5847 7.75699 19.5573 7.72792C19.5573 7.72792 19.5573 4.03421 19.5671 4.0032L15.8353 8.52248L13.8158 8.51472L15.7433 6.2609C15.2619 6.22602 14.7747 6.26671 14.2815 6.25509L12.1114 8.52054L9.47939 8.52635C9.47939 8.52635 9.45982 11.6387 9.47547 11.755L12.2151 11.7608L13.3109 10.5205C13.3109 10.5205 13.3109 11.3557 13.3051 11.7608H15.9351C16.4224 11.1871 19.3107 7.6194 19.3107 7.6194V11.0495C19.3107 11.0495 17.7296 14.4545 16.9859 16.0204C16.9859 16.0204 15.3833 16.0359 14.6123 16.0165C14.8197 15.6095 15.2678 14.7878 15.2678 14.7878L13.2659 14.7917L11.9235 15.968C11.9235 15.968 11.4891 16.0959 10.4402 15.8382C10.4069 15.8304 10.3756 15.8227 10.3424 15.813C10.2778 15.7956 10.2132 15.7781 10.1447 15.7587V15.7549C9.40112 15.5262 8.73969 15.1212 8.27396 14.6192C8.03522 14.3654 7.82388 14.0882 7.6458 13.7917H7.63993C7.63993 13.7917 7.52056 13.6115 7.39141 13.3014C7.39141 13.2976 7.38749 13.2937 7.38554 13.2898C7.34053 13.1832 7.29748 13.0611 7.25638 12.9235C7.25247 12.9138 7.25051 12.9042 7.2466 12.8945C7.06853 12.2976 6.95894 11.4546 7.27791 10.5108H7.28182C7.35423 10.2569 7.44424 10.0147 7.55774 9.78989C8.42855 8.20853 9.84337 7.03026 11.5615 6.06517C12.9137 5.3772 14.3911 4.80163 15.9351 4.51869L14.8099 5.70084L16.3774 5.69696C16.3774 5.69696 16.3598 4.74156 16.3774 4.2532L15.2111 4.40823C12.2855 4.87915 9.36589 5.89076 7.14876 7.56707C5.83765 8.57868 4.75355 9.74531 4.38566 11.4333C4.32695 11.6619 4.28194 11.9158 4.26433 12.1813C4.18801 12.6096 4.18214 19.7063 4.17627 20.2237C4.19388 20.4233 4.20562 20.6307 4.22323 20.8361C4.25063 20.873 4.21736 20.9505 4.24671 20.9854C4.31716 21.3962 4.38566 21.8032 4.51285 22.1675C5.29756 24.2682 7.15854 25.586 9.27783 26.7333C10.8433 27.522 12.5008 28.0976 14.2522 28.4348C17.1073 29.0588 20.4751 29.1344 23.3869 28.5918C26.1598 28.0918 28.9131 27.0802 31.0245 25.4852C31.9286 24.7217 32.7427 23.8981 33.271 22.8671C33.2808 22.8555 33.2867 22.8438 33.2945 22.8303C33.3513 22.7256 33.3982 22.6171 33.4452 22.5047C33.4452 22.5047 33.4452 22.5047 33.4452 22.5008C33.4452 22.5008 33.4452 22.5008 33.4452 22.4989C33.5274 22.2954 33.5939 22.0803 33.6468 21.8613C33.6604 21.8109 33.6761 21.7605 33.6878 21.7101C33.6878 21.6733 33.6976 21.6404 33.6996 21.6055C33.7368 21.4098 33.7642 21.214 33.7857 21.0222C33.7876 21.0047 33.7935 20.9834 33.7955 20.9679C33.7974 20.933 33.7994 20.8981 33.8013 20.8613C33.8659 20.1501 33.8327 19.5416 33.8268 19.373V18.468L33.8659 14.9836L33.8698 14.9874ZM31.731 15.4351L31.7271 15.4312C31.4414 16.4622 30.8112 17.2296 30.1107 17.9699C28.8407 19.1521 27.0286 20.1113 25.1539 20.6055C22.4965 21.3943 19.3909 21.6287 16.483 21.2528C13.7434 20.9272 11.131 20.2005 8.86298 18.8517L8.80036 18.7916C9.83946 19.2742 10.9881 19.6094 12.1799 19.7916C12.538 19.4854 12.8707 19.1443 13.2229 18.8265L14.1524 18.8207C14.17 18.9098 14.1524 20.0551 14.1524 20.0551H17.1719C17.7217 18.7684 18.2794 17.5029 18.8372 16.2238C18.8489 16.6076 18.8313 20.0706 18.8313 20.0706L21.6061 20.0668L23.9231 17.4893L26.6627 17.4835C27.2537 17.4254 27.8055 17.2238 28.2771 16.9234C29.054 16.3052 29.5823 15.5126 29.6645 14.4002V11.2472C29.5823 11.3829 29.5823 11.5825 29.4962 11.7181C29.1244 12.6755 28.1851 13.3654 27.011 13.5999L26.287 13.6948L23.743 13.6987L21.5494 16.0223H18.9369C19.1131 15.5708 19.3283 15.1056 19.5221 14.6522C19.5279 14.4526 19.524 11.5864 19.524 11.5864L19.5397 11.5515C20.886 12.4235 22.9407 12.0515 24.197 11.2395C24.8056 10.8228 25.3203 10.3577 25.7038 9.7802V8.381L25.7195 8.37519C26.6549 8.44108 27.5139 8.68139 28.3338 9.02246C29.9659 9.84221 31.1791 10.9682 31.7055 12.5844V12.5805C31.7055 12.5805 32.2495 13.6755 31.7368 15.4312L31.731 15.4351Z" fill="#0B1D46"/>
<path d="M31.6997 12.5883C31.7897 12.8634 31.8602 13.1522 31.9091 13.4545C31.9091 13.4971 31.8974 13.5553 31.9228 13.5805C31.8993 13.751 31.9619 13.8906 31.9228 14.0514C31.9287 14.2975 31.9169 14.5262 31.8817 14.7452C31.8523 14.8692 31.8171 14.9874 31.8073 15.1153C31.7858 15.2239 31.7565 15.3266 31.7291 15.4312L31.733 15.4351C32.2476 13.6793 31.7056 12.5844 31.7056 12.5844V12.5883H31.6997Z" fill="#0B1D46"/>
<path d="M7.63792 13.7995C7.63792 13.7995 7.64184 13.7995 7.6438 13.7995C7.54987 13.6425 7.46181 13.4797 7.3894 13.3092C7.51856 13.6192 7.63792 13.7995 7.63792 13.7995Z" fill="#0B1D46"/>
<path d="M7.38354 13.2975C7.33462 13.1793 7.29158 13.0572 7.25439 12.9313C7.29549 13.0669 7.34049 13.189 7.38354 13.2975Z" fill="#0B1D46"/>
<path d="M10.3405 15.8207C10.2739 15.8033 10.2094 15.782 10.1448 15.7626V15.7664C10.2094 15.7858 10.2759 15.8033 10.3405 15.8207Z" fill="#0B1D46"/>
<path d="M36.8736 13.0514C36.8462 11.0244 36.4764 10.2221 36.4764 10.2221L36.4725 10.2298C36.3257 9.74726 36.1457 9.28797 35.9461 8.84418C34.7661 6.64268 32.7759 5.02644 30.3553 3.71252C28.598 2.85401 26.7938 2.08853 24.8252 1.71063L23.1305 1.39862C21.3498 1.06917 19.4046 1.0091 17.5084 1.09824C15.8079 1.25134 14.125 1.45676 12.5165 1.84435C10.3111 2.32108 8.21525 3.23385 6.38167 4.38111C4.48937 5.66984 2.8182 7.11166 1.94739 9.12906C1.84759 9.35386 1.75954 9.59029 1.6793 9.82865V9.82478C1.6793 9.82478 1.13921 10.9236 1.19792 12.9565V14.5902L1.16856 17.4428V19.2296C1.16856 19.2296 1.13921 19.7935 1.16856 20.4641V20.497C1.16856 20.497 1.16856 20.5106 1.16856 20.5164C1.18813 20.9214 1.22922 21.3594 1.31141 21.7295C1.35055 21.9756 1.39752 22.2179 1.45426 22.4504C1.57168 22.9155 1.7204 23.3496 1.89652 23.776C2.19788 24.4291 2.52859 25.0415 2.96497 25.5938C4.86118 27.9891 7.96086 29.8127 11.3208 30.8359L13.352 31.3475C14.0663 31.489 14.7806 31.6304 15.5105 31.7351C18.1444 32.1711 21.111 32.0529 23.6941 31.5936C26.469 31.1343 29.1499 30.2758 31.4648 28.8592C33.3806 27.6305 35.0127 26.2062 35.952 24.276C36.2259 23.7062 36.4353 23.0958 36.5762 22.4311C36.6153 22.2489 36.6466 22.059 36.674 21.871C36.678 21.8458 36.6838 21.8206 36.6877 21.7954C36.7034 21.7063 36.7151 21.6191 36.7269 21.5338C36.7327 21.4427 36.7367 21.3516 36.7425 21.2605C36.8286 20.28 36.7915 19.4331 36.7915 19.4331L36.813 17.2393L36.8423 15.8266C36.8325 15.1425 36.8482 14.4739 36.858 13.8053C36.8639 13.6212 36.8658 13.4448 36.8658 13.2762C36.8658 13.222 36.8658 13.1677 36.8678 13.1135C36.8658 13.0921 36.8639 13.0708 36.8639 13.0495L36.8736 13.0514ZM35.1535 16.8169V16.9971V18.9738L35.1496 19.1172H35.1477C35.1477 19.1172 35.1477 19.1424 35.1477 19.185L35.1124 20.6346C35.1105 20.6753 35.1124 20.7179 35.1124 20.7586C35.1085 20.7993 35.1066 20.842 35.1027 20.8826C35.0988 20.8943 35.0988 20.9059 35.0948 20.9156C35.087 20.9718 35.0851 21.0319 35.0851 21.0939C35.0753 21.1792 35.0674 21.2644 35.0577 21.3478C35.0479 21.4175 35.0381 21.4873 35.0224 21.5512C34.9637 22.1287 34.7954 22.6287 34.5998 23.1035C33.3845 26.0221 30.3631 27.8166 27.011 29.0045C24.4064 29.834 21.6785 30.3882 18.6884 30.27C13.3246 30.1053 7.85715 28.4348 4.65962 24.9639C4.34652 24.5977 4.06082 24.214 3.81229 23.8012C3.80251 23.7857 3.79468 23.7702 3.7849 23.7566C3.71641 23.6423 3.65379 23.526 3.59312 23.4058C3.04911 22.3109 2.91409 21.1578 2.88474 20.4757V14.9913C2.89061 14.9584 2.87887 14.9351 2.89453 14.877C2.89453 14.5359 2.89257 14.191 2.89453 13.8479C2.91605 12.846 2.97867 11.5437 3.14892 10.8189C3.36222 10.005 3.74185 9.30541 4.18801 8.66008C5.48346 6.87717 7.49708 5.57682 9.79054 4.54002C12.5243 3.41795 15.4948 2.84626 18.6571 2.76293C21.2343 2.7765 23.6667 3.13502 25.9817 3.79392C28.5295 4.55359 31.0441 5.87138 32.7896 7.50119C33.7544 8.43334 34.5019 9.52827 34.8894 10.8693C35.0048 11.3306 35.1496 12.1697 35.1496 13.4972V16.8149L35.1535 16.8169Z" fill="#0B1D46"/>
</svg>
